 <svg version="1.0" xmlns="http://www.w3.org/2000/svg"  width="300.000000pt" height="129.000000pt" viewBox="0 0 300.000000 129.000000"  preserveAspectRatio="xMidYMid meet">  <g transform="translate(0.000000,129.000000) scale(0.050000,-0.050000)" fill="#000000" stroke="none"> <path d="M932 2228 c-63 -164 77 -321 348 -392 72 -18 114 -34 94 -35 -58 -2 -220 43 -263 72 -58 40 -74 33 -67 -26 9 -78 94 -130 240 -149 l126 -16 -135 7 c-145 7 -151 3 -104 -65 51 -72 192 -61 367 29 154 79 170 102 49 69 -42 -12 -99 -21 -127 -20 -27 1 0 14 60 27 208 48 248 109 73 112 -154 2 -454 177 -554 323 -70 103 -88 114 -107 64z"/> <path d="M2561 2183 c-76 -151 -258 -265 -521 -330 -206 -50 -202 -67 23 -125 105 -28 42 -25 -103 3 -67 13 -68 12 -30 -19 38 -30 38 -31 2 -19 -27 10 -34 7 -24 -10 8 -12 5 -23 -7 -23 -37 0 -23 -52 39 -137 43 -59 75 -83 110 -83 68 0 63 26 -17 81 -38 26 -79 63 -92 84 -13 21 25 1 85 -44 109 -82 186 -101 230 -57 37 37 29 56 -27 56 -46 0 -249 89 -249 109 0 5 47 -13 105 -40 140 -65 300 -68 343 -6 45 64 27 73 -123 66 l-135 -7 120 17 c153 20 222 48 250 102 43 80 12 102 -84 60 -47 -20 -126 -42 -176 -49 l-90 -11 97 28 c208 60 320 133 356 232 62 171 -5 271 -82 122z"/> <path d="M3355 2075 c-112 -148 -249 -484 -305 -750 -61 -296 -68 -311 -157 -378 -138 -103 -172 -105 -159 -8 9 62 4 83 -21 93 -18 7 -33 24 -33 39 0 79 -99 110 -159 50 -50 -50 -315 -246 -376 -279 -41 -21 -45 -19 -45 22 0 79 40 192 71 204 24 9 26 20 9 52 -59 110 -160 -42 -160 -240 0 -112 -5 -127 -70 -191 -103 -104 -137 -179 -112 -251 78 -226 288 -131 280 126 l-5 140 119 88 118 89 16 -61 c23 -89 102 -81 204 21 44 44 81 73 83 64 2 -8 9 -40 16 -70 16 -75 98 -74 213 4 l88 60 33 -77 c55 -128 173 -141 288 -32 89 83 89 84 89 20 0 -95 89 -66 107 35 22 120 99 187 92 80 -2 -30 -2 -66 -1 -80 4 -47 86 -25 169 46 l82 71 18 -56 c36 -111 107 -137 213 -76 67 38 70 38 96 -20 34 -73 106 -65 187 20 80 86 117 89 117 12 0 -88 69 -96 177 -21 80 56 89 58 112 27 37 -50 78 -25 161 101 96 144 114 154 98 53 -9 -54 -4 -92 12 -112 42 -51 55 -34 65 85 17 185 -71 269 -162 154 -23 -29 -45 -42 -53 -30 -24 39 -65 21 -91 -41 -14 -35 -69 -90 -127 -130 -130 -87 -155 -88 -131 -3 25 87 25 90 -19 104 -26 9 -35 25 -28 51 8 29 -4 45 -43 60 -77 29 -81 27 -154 -51 -76 -81 -230 -182 -309 -201 -51 -13 -53 -11 -43 54 22 148 -63 181 -179 68 -91 -88 -90 -89 -75 26 15 113 -24 171 -83 122 -27 -22 -35 -21 -52 9 -25 46 -76 8 -62 -47 14 -55 -283 -320 -359 -320 -74 0 -58 173 27 280 133 168 355 687 372 870 18 194 -60 255 -159 125z m85 -63 c0 -49 -80 -290 -139 -418 -32 -68 -80 -176 -108 -239 -28 -63 -56 -115 -63 -115 -31 0 51 292 134 480 27 61 56 136 64 167 26 106 112 202 112 125z m879 -1079 c-76 -74 -82 -76 -50 -23 55 92 119 156 128 129 4 -13 -31 -61 -78 -106z m-1699 93 c0 -20 -124 -146 -144 -146 -30 0 -16 36 36 98 47 56 108 83 108 48z m-581 -499 c-16 -73 -46 -106 -96 -107 -38 0 -12 97 41 154 56 59 75 42 55 -47z"/> <path d="M1553 1636 c-53 -34 -125 -68 -160 -75 -68 -14 -86 -66 -26 -77 66 -13 122 14 218 106 138 131 127 146 -32 46z"/> <path d="M1586 1562 c-102 -96 -112 -122 -46 -122 38 0 74 37 138 145 60 100 33 93 -92 -23z"/> </g> </svg> 