<?xml version="1.0" standalone="no"?>
<!DOCTYPE svg PUBLIC "-//W3C//DTD SVG 20010904//EN"
 "http://www.w3.org/TR/2001/REC-SVG-20010904/DTD/svg10.dtd">
<svg version="1.0" xmlns="http://www.w3.org/2000/svg"
 width="1437.000000pt" height="823.000000pt" viewBox="0 0 1437.000000 823.000000"
 preserveAspectRatio="xMidYMid meet">

<g transform="translate(0.000000,823.000000) scale(0.100000,-0.100000)"
fill="#000000" stroke="none">
<path d="M8699 6895 c-102 -16 -181 -36 -304 -75 -155 -50 -309 -90 -341 -90
-19 0 -37 -7 -45 -18 -8 -11 -69 -37 -144 -62 -390 -128 -1149 -475 -1390
-636 -55 -37 -115 -71 -133 -76 -18 -5 -47 -22 -65 -37 -17 -16 -48 -35 -68
-44 -53 -22 -229 -139 -223 -148 2 -5 -18 -20 -46 -34 -28 -14 -67 -43 -88
-63 -20 -21 -61 -53 -89 -72 -29 -18 -53 -37 -53 -42 0 -4 -43 -54 -96 -110
-197 -210 -277 -381 -278 -588 0 -153 42 -277 119 -350 20 -19 43 -48 51 -63
9 -16 32 -47 52 -69 48 -53 242 -198 357 -267 50 -30 148 -92 219 -138 70 -46
158 -97 195 -114 36 -16 76 -41 89 -54 13 -14 31 -25 41 -25 9 0 28 -12 42
-26 13 -15 58 -49 99 -77 243 -163 412 -315 542 -485 141 -184 182 -283 179
-429 -3 -146 -71 -344 -140 -407 -18 -16 -50 -62 -72 -103 -33 -59 -66 -97
-168 -193 -175 -165 -346 -305 -410 -335 -29 -14 -78 -42 -108 -61 -30 -19
-84 -46 -121 -60 -37 -14 -88 -39 -115 -56 -37 -24 -51 -28 -57 -18 -4 7 -9 8
-11 3 -2 -5 -62 -24 -134 -42 -168 -43 -330 -53 -402 -26 -122 46 -117 87 34
275 62 76 135 144 233 217 30 22 65 53 78 68 13 14 40 34 60 43 20 10 50 29
66 44 15 15 53 41 82 58 30 17 73 47 96 68 22 20 57 42 76 47 20 6 37 16 40
24 3 9 -2 11 -17 6 -12 -3 -21 -2 -21 4 0 5 8 12 19 16 23 7 59 45 43 45 -19
0 -14 22 10 47 16 18 18 23 6 23 -21 0 -52 -37 -53 -63 0 -18 -8 -23 -49 -30
-32 -5 -55 -15 -64 -29 -8 -11 -38 -31 -67 -44 -29 -12 -56 -28 -60 -33 -3 -6
-14 -11 -23 -11 -9 0 -27 -11 -41 -24 -22 -21 -152 -96 -166 -96 -12 0 -3 16
13 25 56 31 90 55 134 93 27 23 78 56 112 72 35 17 71 39 80 49 10 11 24 17
32 14 8 -3 30 9 49 26 46 40 137 86 214 107 34 10 61 21 61 25 0 5 14 24 30
43 24 27 27 35 15 40 -8 3 -15 13 -15 22 0 21 -50 13 -175 -27 -212 -67 -396
-163 -659 -342 -297 -203 -436 -450 -411 -727 17 -179 85 -299 205 -360 59
-30 112 -34 250 -16 156 21 258 48 346 92 37 19 75 34 84 34 9 0 31 11 50 25
19 14 39 25 44 25 27 0 224 104 220 115 -3 7 6 15 20 19 32 8 33 22 4 30 -22
6 -22 7 -4 18 14 8 24 8 37 -1 24 -14 96 12 104 39 3 10 18 21 33 25 31 8 72
42 72 62 0 7 7 13 16 13 9 0 32 16 51 37 27 28 37 33 43 23 6 -10 11 -4 17 21
6 23 16 35 30 37 13 2 24 13 27 28 4 14 28 40 56 60 51 36 62 54 35 54 -9 0
-12 6 -8 16 4 10 13 14 26 10 25 -6 57 10 57 29 0 14 60 90 114 146 14 15 26
31 26 37 0 6 26 64 58 129 l57 118 -2 180 c-4 255 -17 374 -52 467 -85 219
-162 331 -380 548 -126 126 -211 201 -300 265 -69 49 -146 108 -173 132 -27
24 -55 43 -62 43 -8 0 -56 28 -107 62 -52 34 -119 72 -149 85 -30 12 -56 28
-58 36 -3 14 -43 37 -64 37 -6 0 -18 7 -27 15 -58 53 -103 86 -147 108 -28 14
-99 62 -158 106 -60 45 -128 93 -152 107 -24 14 -44 30 -44 36 0 5 -14 30 -32
54 -26 37 -33 57 -36 107 -5 89 24 161 97 240 32 34 56 68 54 75 -6 17 216
231 240 232 9 0 17 6 17 14 0 7 19 26 43 41 23 16 96 67 162 115 139 100 195
134 273 166 36 15 57 29 57 39 0 11 19 23 54 35 29 9 65 27 80 39 14 11 61 39
104 61 43 23 80 47 83 54 3 8 15 17 27 20 12 3 47 21 77 41 30 19 72 38 93 42
21 3 54 19 74 34 20 16 46 29 59 29 13 0 27 6 31 13 13 19 102 64 168 82 71
21 110 39 148 71 16 13 38 24 49 24 11 0 71 20 134 45 62 25 136 50 164 56 33
7 50 16 50 26 0 9 6 12 18 9 10 -3 56 10 102 30 145 62 639 183 835 205 116
12 288 7 377 -12 l50 -11 -6 -56 c-5 -46 -41 -167 -71 -244 -12 -32 35 -21 95
21 30 21 72 44 92 50 97 32 106 195 18 316 -16 22 -40 60 -54 85 -13 25 -39
60 -57 78 -19 18 -42 41 -51 52 -44 50 -284 74 -459 45z m-1202 -461 c-3 -3
-12 -4 -19 -1 -8 3 -5 6 6 6 11 1 17 -2 13 -5z m-77 -33 c0 -11 -40 -22 -52
-15 -5 3 -6 10 -3 15 8 12 55 12 55 0z m-113 -37 c-3 -3 -12 -4 -19 -1 -8 3
-5 6 6 6 11 1 17 -2 13 -5z m-73 -39 c-22 -17 -44 -19 -44 -5 0 6 9 10 19 10
11 0 23 5 26 11 4 6 10 8 13 5 3 -4 -3 -13 -14 -21z m-104 -53 c0 -13 -114
-62 -124 -52 -5 5 10 17 35 28 71 32 89 37 89 24z m-180 -72 c0 -5 -4 -10 -10
-10 -5 0 -10 5 -10 10 0 6 5 10 10 10 6 0 10 -4 10 -10z m-70 -41 c0 -16 -5
-20 -27 -17 -14 2 -28 8 -30 15 -4 10 5 14 50 22 4 0 7 -8 7 -20z m70 -29 c0
-5 -5 -10 -11 -10 -5 0 -7 5 -4 10 3 6 8 10 11 10 2 0 4 -4 4 -10z m-55 -30
c-3 -5 -10 -10 -16 -10 -5 0 -9 5 -9 10 0 6 7 10 16 10 8 0 12 -4 9 -10z
m-145 -8 c0 -12 -46 -32 -71 -32 -29 0 -14 18 24 29 42 12 47 12 47 3z m430
-2 c0 -5 -7 -10 -16 -10 -8 0 -12 5 -9 10 3 6 10 10 16 10 5 0 9 -4 9 -10z
m-410 -49 c0 -10 -25 -21 -48 -21 -12 1 -10 5 8 15 29 17 40 18 40 6z m-186
-30 c9 -14 -17 -28 -51 -28 -18 0 -33 2 -33 4 0 3 61 31 72 32 4 1 9 -3 12 -8z
m241 -1 c3 -5 -1 -10 -9 -10 -9 0 -16 5 -16 10 0 6 4 10 9 10 6 0 13 -4 16
-10z m153 -11 c-12 -7 -24 -7 -35 0 -15 9 -12 10 17 10 29 0 32 -1 18 -10z
m-478 -39 c0 -10 -31 -18 -48 -13 -6 3 -10 8 -8 11 6 10 56 11 56 2z m90 -15
c-7 -8 -17 -15 -22 -15 -6 0 -5 7 2 15 7 8 17 15 22 15 6 0 5 -7 -2 -15z m235
5 c3 -5 -1 -10 -10 -10 -9 0 -13 5 -10 10 3 6 8 10 10 10 2 0 7 -4 10 -10z
m-362 -25 c-3 -13 -53 -20 -53 -7 0 15 13 23 35 20 11 -2 19 -7 18 -13z m82
-5 c-3 -5 -13 -10 -21 -10 -8 0 -12 5 -9 10 3 6 13 10 21 10 8 0 12 -4 9 -10z
m-161 -26 c-9 -14 -30 -28 -46 -31 -17 -3 -32 -12 -35 -19 -7 -19 -33 -18 -33
1 0 8 6 15 13 15 6 0 32 14 57 30 55 37 66 38 44 4z m296 16 c0 -5 -4 -10 -10
-10 -5 0 -10 5 -10 10 0 6 5 10 10 10 6 0 10 -4 10 -10z m44 -35 c3 -9 0 -15
-8 -15 -8 0 -16 7 -20 15 -3 9 0 15 8 15 8 0 16 -7 20 -15z m-269 -5 c3 -5 1
-10 -4 -10 -6 0 -11 5 -11 10 0 6 2 10 4 10 3 0 8 -4 11 -10z m208 -14 c4 -10
1 -13 -8 -9 -8 3 -12 9 -9 14 7 12 11 11 17 -5z m-282 -27 c-13 -11 -26 -17
-29 -14 -7 6 29 34 43 34 6 0 -1 -9 -14 -20z m142 4 c-7 -2 -19 -2 -25 0 -7 3
-2 5 12 5 14 0 19 -2 13 -5z m-290 -44 c-69 -16 -86 -3 -30 22 28 13 33 13 45
0 11 -14 9 -17 -15 -22z m357 31 c0 -5 -12 -10 -27 -9 -25 0 -26 1 -8 9 27 12
35 12 35 0z m-432 -67 c2 -7 -4 -13 -13 -13 -10 0 -30 -11 -47 -25 -31 -26
-53 -31 -77 -16 -11 7 -5 11 22 16 20 4 37 11 37 16 0 5 9 9 20 9 11 0 19 3
19 8 -3 17 2 23 18 20 9 -2 18 -9 21 -15z m112 7 c0 -5 -4 -10 -10 -10 -5 0
-10 5 -10 10 0 6 5 10 10 10 6 0 10 -4 10 -10z m230 6 c0 -2 -7 -6 -15 -10 -8
-3 -15 -1 -15 4 0 6 7 10 15 10 8 0 15 -2 15 -4z m-323 -61 c-15 -14 -33 -25
-40 -25 -7 0 1 12 16 25 15 14 33 25 40 25 7 0 -1 -12 -16 -25z m-157 -35 c0
-5 -7 -10 -16 -10 -8 0 -12 5 -9 10 3 6 10 10 16 10 5 0 9 -4 9 -10z m95 -10
c-9 -15 -65 -42 -77 -38 -6 2 4 14 23 26 36 23 65 29 54 12z m-110 -60 c6 -10
-53 -45 -62 -36 -6 6 37 45 49 46 4 0 9 -4 13 -10z m-90 -40 c17 -18 17 -20 0
-26 -10 -4 -20 -1 -25 6 -7 11 -14 11 -35 2 -38 -17 -48 -15 -26 7 16 16 32
24 62 30 3 0 14 -8 24 -19z m257 -2 c-12 -12 -35 -1 -27 12 3 5 13 6 21 3 10
-4 12 -9 6 -15z m-382 -48 c0 -5 -4 -10 -10 -10 -5 0 -10 5 -10 10 0 6 5 10
10 10 6 0 10 -4 10 -10z m275 0 c3 -5 -1 -10 -10 -10 -9 0 -13 5 -10 10 3 6 8
10 10 10 2 0 7 -4 10 -10z m-85 -4 c0 -3 -4 -8 -10 -11 -5 -3 -10 -1 -10 4 0
6 5 11 10 11 6 0 10 -2 10 -4z m-215 -156 c3 -5 2 -10 -4 -10 -5 0 -13 5 -16
10 -3 6 -2 10 4 10 5 0 13 -4 16 -10z m-245 -260 c0 -5 -5 -10 -11 -10 -5 0
-7 5 -4 10 3 6 8 10 11 10 2 0 4 -4 4 -10z m-13 -106 c-3 -3 -12 -4 -19 -1 -8
3 -5 6 6 6 11 1 17 -2 13 -5z m448 -874 c3 -5 1 -10 -4 -10 -6 0 -11 5 -11 10
0 6 2 10 4 10 3 0 8 -4 11 -10z m465 -144 c0 -11 -19 -15 -25 -6 -3 5 1 10 9
10 9 0 16 -2 16 -4z m-75 -56 c3 -5 -3 -10 -14 -10 -12 0 -21 5 -21 10 0 6 6
10 14 10 8 0 18 -4 21 -10z m155 -94 c0 -11 -19 -15 -25 -6 -3 5 1 10 9 10 9
0 16 -2 16 -4z m27 -43 c-9 -9 -19 -14 -23 -11 -10 10 6 28 24 28 15 0 15 -1
-1 -17z m162 -14 c-16 -10 -23 -4 -14 10 3 6 11 8 17 5 6 -4 5 -9 -3 -15z m61
-141 c0 -12 -14 -10 -28 4 -19 19 -14 29 8 16 11 -7 20 -16 20 -20z m43 -15
c-7 -2 -19 -2 -25 0 -7 3 -2 5 12 5 14 0 19 -2 13 -5z m72 -63 c48 -50 25 -53
-27 -5 -41 38 -45 45 -25 45 7 0 31 -18 52 -40z m125 -106 c67 -63 97 -104 61
-85 -28 15 -141 121 -141 132 0 19 21 7 80 -47z m150 -154 c0 -14 -28 -1 -34
16 -4 12 -2 12 14 4 11 -6 20 -15 20 -20z m-583 -736 c-3 -3 -12 -4 -19 -1 -8
3 -5 6 6 6 11 1 17 -2 13 -5z m-77 -34 c0 -5 -4 -10 -10 -10 -5 0 -10 5 -10
10 0 6 5 10 10 10 6 0 10 -4 10 -10z m-50 -40 c-43 -23 -50 -24 -50 -6 0 14
22 22 65 24 14 1 10 -5 -15 -18z m-70 -30 c0 -11 -42 -31 -49 -24 -5 5 30 33
42 34 4 0 7 -5 7 -10z m-111 -56 c-19 -24 -106 -65 -123 -58 -22 8 -8 34 19
34 13 0 30 6 37 13 16 17 37 25 62 26 16 1 17 -1 5 -15z m-145 -73 c3 -4 -12
-13 -34 -20 -22 -6 -44 -21 -50 -31 -6 -12 -21 -20 -36 -20 -24 0 -24 1 -8 25
9 14 22 25 29 25 7 0 15 7 19 15 6 16 71 21 80 6z m-164 -95 c0 -8 -9 -17 -20
-21 -11 -3 -54 -31 -95 -61 -42 -29 -86 -59 -98 -65 -48 -25 28 43 113 102 92
63 100 66 100 45z m1120 -161 c10 -12 10 -15 -4 -15 -9 0 -16 7 -16 15 0 8 2
15 4 15 2 0 9 -7 16 -15z m-1220 -3 c0 -22 -63 -72 -90 -72 -8 0 0 10 18 21
17 12 32 27 32 34 0 7 6 16 13 18 19 8 27 8 27 -1z m-159 -15 c-1 -12 -15 -9
-19 4 -3 6 1 10 8 8 6 -3 11 -8 11 -12z m1364 -17 c-3 -5 -13 -10 -21 -10 -8
0 -14 5 -14 10 0 6 9 10 21 10 11 0 17 -4 14 -10z m-1395 -9 c0 -11 -31 -24
-39 -16 -3 3 1 10 9 15 19 12 30 12 30 1z m1340 -21 c0 -5 -5 -10 -11 -10 -5
0 -7 5 -4 10 3 6 8 10 11 10 2 0 4 -4 4 -10z m-1424 -30 c-51 -25 -59 -25 -21
0 17 11 37 20 45 20 8 -1 -3 -10 -24 -20z m1464 -8 c0 -13 -12 -22 -22 -16
-10 6 -1 24 13 24 5 0 9 -4 9 -8z m-36 -57 c-9 -14 -23 -25 -30 -25 -21 0 -17
18 6 25 11 3 20 11 20 16 0 5 5 9 10 9 6 0 3 -11 -6 -25z m-1327 -1 c-3 -3
-12 -4 -19 -1 -8 3 -5 6 6 6 11 1 17 -2 13 -5z m1243 -93 c0 -8 -43 -41 -55
-41 -3 0 -5 5 -5 10 0 6 6 10 14 10 8 0 16 7 20 15 6 16 26 21 26 6z m-70 -60
c0 -12 -20 -25 -27 -18 -7 7 6 27 18 27 5 0 9 -4 9 -9z m-57 -63 c-18 -18 -36
-29 -39 -25 -10 10 36 57 55 57 11 0 6 -10 -16 -32z m-113 -4 c0 -2 -9 -4 -21
-4 -11 0 -18 4 -14 10 5 8 35 3 35 -6z m-45 -14 c3 -5 -1 -10 -9 -10 -9 0 -16
5 -16 10 0 6 4 10 9 10 6 0 13 -4 16 -10z m105 -24 c0 -3 -4 -8 -10 -11 -5 -3
-10 -1 -10 4 0 6 5 11 10 11 6 0 10 -2 10 -4z m-172 -38 c-3 -7 -14 -14 -26
-16 -16 -3 -20 1 -16 12 7 19 48 22 42 4z m137 -8 c4 -6 -5 -10 -20 -10 -15 0
-24 4 -20 10 3 6 12 10 20 10 8 0 17 -4 20 -10z m80 -10 c-3 -5 -14 -10 -24
-10 -10 0 -24 -7 -31 -15 -14 -17 -30 -20 -30 -5 0 10 55 38 78 39 7 1 10 -3
7 -9z m-270 -20 c-3 -5 -30 -17 -60 -26 -30 -8 -58 -21 -62 -27 -15 -22 -72
-57 -95 -57 -17 0 -11 7 26 31 113 71 211 112 191 79z m89 -25 c-4 -8 -14 -15
-23 -15 -14 1 -13 3 3 15 25 19 27 19 20 0z m56 -35 c-20 -13 -43 -13 -35 0 3
6 16 10 28 10 18 0 19 -2 7 -10z m-220 -65 c-14 -16 -40 -20 -40 -6 0 10 17
19 39 20 11 1 11 -2 1 -14z m-155 -5 c4 -6 -5 -10 -20 -10 -15 0 -24 4 -20 10
3 6 12 10 20 10 8 0 17 -4 20 -10z m255 1 c0 -6 -4 -13 -10 -16 -5 -3 -10 1
-10 9 0 9 5 16 10 16 6 0 10 -4 10 -9z m-530 -31 c0 -5 -9 -10 -20 -10 -11 0
-20 5 -20 10 0 6 9 10 20 10 11 0 20 -4 20 -10z m350 -5 c0 -8 -4 -15 -10 -15
-5 0 -10 7 -10 15 0 8 5 15 10 15 6 0 10 -7 10 -15z m-170 -5 c0 -5 -6 -10
-14 -10 -8 0 -16 -7 -20 -15 -3 -8 -14 -15 -24 -15 -10 0 -27 -7 -38 -15 -24
-18 -34 -19 -34 -1 0 15 21 26 48 26 9 0 28 9 42 20 28 22 40 25 40 10z m-260
-34 c-32 -7 -49 -15 -40 -18 25 -11 -8 -28 -53 -28 -21 0 -36 -4 -33 -8 6 -11
-90 -36 -104 -27 -6 3 -7 11 -4 17 7 11 -26 8 -76 -8 -22 -7 -23 -5 -12 8 26
32 152 51 152 23 0 -8 5 -15 10 -15 6 0 10 9 10 20 0 14 7 20 23 21 12 0 38 7
57 14 19 7 55 13 80 13 l45 0 -55 -12z m400 10 c0 -3 -4 -8 -10 -11 -5 -3 -10
-1 -10 4 0 6 5 11 10 11 6 0 10 -2 10 -4z m-40 -16 c0 -5 -4 -10 -10 -10 -5 0
-10 5 -10 10 0 6 5 10 10 10 6 0 10 -4 10 -10z m-270 -55 c-17 -16 -130 -37
-130 -23 0 4 1 8 3 8 1 0 20 7 42 15 22 8 53 14 70 15 26 0 27 -2 15 -15z
m-200 -45 c0 -5 -5 -10 -11 -10 -5 0 -7 5 -4 10 3 6 8 10 11 10 2 0 4 -4 4
-10z"/>
<path d="M7441 2610 c0 -36 2 -41 10 -27 7 12 7 27 0 45 -9 25 -9 24 -10 -18z"/>
<path d="M6425 2410 c-3 -5 -2 -10 4 -10 5 0 13 5 16 10 3 6 2 10 -4 10 -5 0
-13 -4 -16 -10z"/>
</g>
</svg>
